<svg xmlns="http://www.w3.org/2000/svg" viewBox="0 0 377 160" width="377" height="160" fill="none" shape-rendering="geometricPrecision">
  <defs>
    <style>
      .dot-blue { fill: #3b82f6; }
      .dot-green { fill: #22c55e; }
      .logo-text { fill: #0f172a; }
      @media (prefers-color-scheme: dark) {
        .dot-blue { fill: #60a5fa; }
        .dot-green { fill: #4ade80; }
        .logo-text { fill: #f8fafc; }
      }
    </style>
  </defs>
  <circle class="dot-blue" cx="88" cy="32" r="20"/>
  <circle class="dot-blue" cx="40" cy="64" r="20"/>
  <circle class="dot-green" cx="40" cy="104" r="20"/>
  <path class="logo-text" d="M168.97 90.58Q168.97 98.94 162.94 103.91Q156.91 108.88 145.82 108.88Q135.88 108.88 128.05 105.10L128.05 92.69Q132.54 94.62 137.33 96.25Q142.13 97.88 146.88 97.88Q151.81 97.88 153.88 95.99Q155.94 94.10 155.94 91.19Q155.94 88.82 154.32 87.14Q152.69 85.47 149.96 84.02Q147.23 82.57 143.71 80.90Q141.51 79.84 138.96 78.39Q136.41 76.94 134.08 74.78Q131.74 72.62 130.25 69.54Q128.75 66.46 128.75 62.15Q128.75 53.70 134.47 49Q140.19 44.29 150.05 44.29Q154.98 44.29 159.42 45.43Q163.86 46.58 168.70 48.69L164.39 59.07Q160.08 57.31 156.65 56.34Q153.22 55.38 149.61 55.38Q145.82 55.38 143.80 57.14Q141.78 58.90 141.78 61.71Q141.78 65.06 144.77 66.99Q147.76 68.93 153.66 71.74Q158.50 74.03 161.88 76.50Q165.27 78.96 167.12 82.30Q168.97 85.65 168.97 90.58M199.59 98.41Q201.79 98.41 203.82 97.97Q205.84 97.53 207.86 96.91L207.86 106.68Q205.75 107.56 202.63 108.22Q199.50 108.88 195.81 108.88Q191.50 108.88 188.11 107.47Q184.72 106.06 182.74 102.59Q180.76 99.11 180.76 92.95L180.76 69.81L174.51 69.81L174.51 64.26L181.73 59.86L185.51 49.74L193.87 49.74L193.87 59.95L207.34 59.95L207.34 69.81L193.87 69.81L193.87 92.95Q193.87 95.68 195.46 97.04Q197.04 98.41 199.59 98.41M248.52 59.95L261.63 59.95L261.63 108L251.60 108L249.84 101.84L249.14 101.84Q246.85 105.54 242.84 107.21Q238.84 108.88 234.35 108.88Q226.61 108.88 221.94 104.70Q217.28 100.52 217.28 91.28L217.28 59.95L230.39 59.95L230.39 88.02Q230.39 93.13 232.24 95.77Q234.09 98.41 238.14 98.41Q244.12 98.41 246.32 94.32Q248.52 90.22 248.52 82.57L248.52 59.95M290.58 108.88Q282.58 108.88 277.52 102.59Q272.46 96.30 272.46 84.06Q272.46 71.74 277.56 65.41Q282.66 59.07 290.94 59.07Q296.13 59.07 299.47 61.10Q302.82 63.12 304.75 66.11L305.19 66.11Q304.93 64.70 304.58 62.02Q304.22 59.34 304.22 56.52L304.22 41.12L317.34 41.12L317.34 108L307.30 108L304.75 101.75L304.22 101.75Q302.29 104.74 299.03 106.81Q295.78 108.88 290.58 108.88M295.16 98.41Q300.62 98.41 302.82 95.20Q305.02 91.98 305.10 85.56L305.10 84.15Q305.10 77.11 302.95 73.42Q300.79 69.72 294.98 69.72Q290.67 69.72 288.21 73.46Q285.74 77.20 285.74 84.24Q285.74 91.28 288.21 94.84Q290.67 98.41 295.16 98.41M343.30 107.65L324.20 59.95L338.54 59.95L347.61 86.97Q348.31 88.90 348.66 90.97Q349.02 93.04 349.19 95.33L349.46 95.33Q349.72 93.04 350.20 90.97Q350.69 88.90 351.30 86.97L360.19 59.95L374.27 59.95L353.94 114.16Q351.22 121.64 345.98 125.38Q340.74 129.12 333.88 129.12Q331.68 129.12 330.05 128.90Q328.42 128.68 327.19 128.42L327.19 118.03Q328.16 118.21 329.52 118.38Q330.89 118.56 332.38 118.56Q336.52 118.56 338.94 116.05Q341.36 113.54 342.50 110.02"/>
</svg>
